G04 Gerber file generated by Gerbonara*
%MOMM*%
%FSLAX45Y45*%
%IPPOS*%
G75
%LPD*%
%ADD10C,0.3*%
%ADD11C,0.15*%
D10*
X001200000Y001500000D02*
X001500000Y001500000D01*
X002200000Y001500000D02*
X002500000Y001500000D01*
X001200000Y001754000D02*
X001500000Y001754000D01*
X002200000Y001754000D02*
X002500000Y001754000D01*
X001200000Y002008000D02*
X001500000Y002008000D01*
X002200000Y002008000D02*
X002500000Y002008000D01*
X001200000Y002262000D02*
X001500000Y002262000D01*
X002200000Y002262000D02*
X002500000Y002262000D01*
X001500000Y001400000D02*
X002200000Y001400000D01*
X002200000Y002362000D01*
X001500000Y002362000D01*
X001500000Y001400000D01*
X003000000Y002000000D02*
X003300000Y002150000D01*
X003000000Y002300000D01*
X003000000Y002000000D01*
X003300000Y002000000D02*
X003300000Y002300000D01*
X000500000Y001000000D02*
X000500000Y001600000D01*
X000800000Y001000000D02*
X000800000Y001600000D01*
X000500000Y002500000D02*
X000900000Y002500000D01*
X000500000Y002600000D02*
X000900000Y002600000D01*
D11*
X002500000Y002008000D02*
X003000000Y002008000D01*
X003000000Y002150000D01*
X003000000Y002150000D01*
X001200000Y002008000D02*
X000500000Y002008000D01*
X000500000Y001600000D01*
X000500000Y001300000D02*
X000800000Y001300000D01*
X001200000Y001754000D02*
X000700000Y001754000D01*
X000700000Y002600000D01*
X000800000Y001000000D02*
X001000000Y001000000D01*
X001000000Y001500000D01*
X001200000Y001500000D01*
D10*
X0Y003000000D02*
X003500000Y003000000D01*
D11*
X001200000Y002262000D02*
X001200000Y003000000D01*
X002500000Y002262000D02*
X002500000Y003000000D01*
X000500000Y001600000D02*
X000500000Y003000000D01*
D10*
X0Y000500000D02*
X003500000Y000500000D01*
D11*
X001200000Y001500000D02*
X001000000Y001500000D01*
X001000000Y000500000D01*
X000700000Y002500000D02*
X000700000Y000500000D01*
X003300000Y002150000D02*
X003500000Y002150000D01*
X003500000Y000500000D01*
M02*